<svg width="80" height="80" viewBox="0 0 80 80" fill="none" xmlns="http://www.w3.org/2000/svg">
<path d="M66.6665 46.6667C70.3484 46.6667 73.3332 43.682 73.3332 40.0001C73.3332 36.3182 70.3484 33.3334 66.6665 33.3334C62.9846 33.3334 59.9998 36.3182 59.9998 40.0001C59.9998 43.682 62.9846 46.6667 66.6665 46.6667Z" fill="white"/>
<path d="M13.3332 46.6667C17.0151 46.6667 19.9998 43.682 19.9998 40.0001C19.9998 36.3182 17.0151 33.3334 13.3332 33.3334C9.65127 33.3334 6.6665 36.3182 6.6665 40.0001C6.6665 43.682 9.65127 46.6667 13.3332 46.6667Z" fill="white"/>
<path d="M39.9998 73.3334C43.6817 73.3334 46.6665 70.3486 46.6665 66.6667C46.6665 62.9848 43.6817 60.0001 39.9998 60.0001C36.3179 60.0001 33.3332 62.9848 33.3332 66.6667C33.3332 70.3486 36.3179 73.3334 39.9998 73.3334Z" fill="white"/>
<path d="M26.2998 48.8334L16.4998 58.6001C15.1998 59.9001 15.1998 62.0001 16.4998 63.3001C17.7998 64.6001 19.8998 64.6001 21.1998 63.3001L30.9998 53.5334C32.2998 52.2667 32.2998 50.1334 30.9998 48.8334C29.6998 47.5334 27.5998 47.5334 26.2998 48.8334Z" fill="white"/>
<path d="M21.3665 16.4667C20.0665 15.1667 17.9665 15.1667 16.6665 16.4667C15.3665 17.7667 15.3665 19.8667 16.6665 21.1667L26.4332 30.9667C27.7332 32.2667 29.8332 32.2667 31.1665 30.9667C32.4332 29.6667 32.4332 27.5667 31.1332 26.2667L21.3665 16.4667Z" fill="white"/>
<path d="M53.7332 48.8334C52.4332 47.5334 50.3332 47.5334 48.9998 48.8334C47.6998 50.1334 47.6998 52.2334 48.9998 53.5334L58.7998 63.3334C60.0998 64.6334 62.1998 64.6334 63.4998 63.3334C64.7998 62.0334 64.7998 59.9334 63.4998 58.6334L53.7332 48.8334Z" fill="white"/>
<path d="M53.5332 31.1001L63.4998 21.1667C64.7998 19.8334 64.7998 17.7334 63.4998 16.4334C62.1998 15.1334 60.0998 15.1334 58.7998 16.4334L48.8332 26.3667C47.5332 27.6667 47.5332 29.7667 48.8332 31.1001C50.1332 32.4001 52.2332 32.4001 53.5332 31.1001Z" fill="white"/>
<path d="M39.9998 20.0001C43.6817 20.0001 46.6665 17.0153 46.6665 13.3334C46.6665 9.65152 43.6817 6.66675 39.9998 6.66675C36.3179 6.66675 33.3332 9.65152 33.3332 13.3334C33.3332 17.0153 36.3179 20.0001 39.9998 20.0001Z" fill="white"/>
</svg>
