<svg width="536" height="160" viewBox="0 0 536 160" fill="none" xmlns="http://www.w3.org/2000/svg">
<path d="M18.6854 115.4C14.2851 117.941 8.60446 116.449 6.58566 111.786C2.80265 103.048 0.599798 93.6822 0.106389 84.1244C-0.545579 71.4953 1.80569 58.8915 6.96732 47.3469C12.1289 35.8023 19.9539 25.6457 29.8003 17.7104C37.252 11.705 45.7009 7.10126 54.7349 4.0943C59.5558 2.48964 64.4556 5.7282 65.4964 10.7015V10.7015C66.5373 15.6747 63.313 20.4859 58.55 22.2552C52.3444 24.5604 46.5318 27.858 41.3462 32.037C33.7645 38.1472 27.7393 45.9677 23.7648 54.8571C19.7904 63.7464 17.9799 73.4514 18.4819 83.1758C18.8253 89.8269 20.2437 96.3575 22.6637 102.519C24.5212 107.249 23.0857 112.859 18.6854 115.4V115.4Z" fill="url(#paint0_linear)"/>
<path d="M80 9.2C80 4.11898 84.1324 -0.0546262 89.1799 0.528417C98.6382 1.62097 107.851 4.39632 116.375 8.74788C127.638 14.4978 137.378 22.836 144.795 33.0784C152.212 43.3208 157.095 55.1756 159.044 67.6705C160.519 77.1266 160.282 86.7454 158.369 96.0725C157.348 101.05 152.093 103.674 147.266 102.089V102.089C142.439 100.504 139.884 95.3056 140.733 90.2961C141.84 83.7693 141.89 77.0867 140.864 70.5063C139.363 60.8852 135.603 51.757 129.892 43.8704C124.181 35.9837 116.681 29.5633 108.009 25.1359C102.077 22.1077 95.7121 20.0708 89.1659 19.0857C84.1415 18.3297 80 14.281 80 9.2V9.2Z" fill="url(#paint1_linear)"/>
<path d="M141.315 115.4C145.715 117.941 147.263 123.606 144.234 127.686C138.559 135.331 131.549 141.921 123.519 147.128C112.908 154.007 100.817 158.273 88.238 159.575C75.6592 160.877 62.951 159.179 51.1556 154.619C42.2289 151.168 34.0175 146.153 26.8964 139.833C23.0962 136.46 23.451 130.598 27.2376 127.21V127.21C31.0241 123.822 36.8029 124.208 40.7166 127.449C45.8157 131.67 51.5778 135.055 57.7898 137.457C66.8722 140.968 76.6576 142.275 86.3432 141.273C96.0288 140.27 105.339 136.985 113.509 131.688C119.098 128.065 124.044 123.572 128.17 118.395C131.337 114.422 136.914 112.859 141.315 115.4V115.4Z" fill="url(#paint2_linear)"/>
<path d="M254.982 34.4336H282.375C292.186 34.4336 299.849 36.6715 305.363 41.1475C310.878 45.5876 313.635 51.6032 313.635 59.1943C313.635 64.6012 312.185 69.2741 309.284 73.2129C306.42 77.1159 302.355 79.9984 297.092 81.8604L316.213 115H297.79L279.958 84.1162H271.418V115H254.982V34.4336ZM280.441 70.4736C285.848 70.4736 289.948 69.471 292.741 67.4658C295.57 65.4606 296.984 62.7214 296.984 59.248C296.984 55.7747 295.57 53.0534 292.741 51.084C289.948 49.1146 285.848 48.1299 280.441 48.1299H271.418V70.4736H280.441ZM335.603 92.7637C336.569 95.7357 338.342 98.1527 340.92 100.015C343.534 101.877 346.577 102.808 350.051 102.808C353.775 102.808 356.854 102.217 359.289 101.035C361.76 99.8177 363.998 98.2601 366.003 96.3623L375.349 107.534C371.195 110.793 367.077 113.031 362.995 114.248C358.949 115.465 355.064 116.074 351.34 116.074C345.396 116.074 340.15 114.875 335.603 112.476C331.055 110.041 327.492 106.711 324.914 102.485C322.336 98.2243 321.047 93.3903 321.047 87.9834C321.047 82.6481 322.282 77.9036 324.753 73.75C327.224 69.5605 330.59 66.2663 334.851 63.8672C339.147 61.4323 344.017 60.2148 349.46 60.2148C354.867 60.2148 359.665 61.4144 363.854 63.8135C368.08 66.2126 371.41 69.5068 373.845 73.6963C376.28 77.8857 377.497 82.6839 377.497 88.0908V92.7637H335.603ZM361.599 84.1699C360.847 81.0189 359.307 78.4766 356.979 76.543C354.652 74.6094 351.859 73.6426 348.601 73.6426C345.306 73.6426 342.442 74.6273 340.007 76.5967C337.608 78.5661 336.032 81.0905 335.28 84.1699H361.599ZM403.225 32.2852V115H387.756V32.2852H403.225ZM415.471 100.229C415.471 96.6488 416.491 93.444 418.532 90.6152C420.609 87.7865 423.456 85.5485 427.072 83.9014C430.689 82.2542 434.825 81.4307 439.479 81.4307C440.948 81.4307 442.487 81.5202 444.099 81.6992C445.746 81.8783 447.393 82.111 449.04 82.3975C447.858 76.5609 443.615 73.6426 436.311 73.6426C431.978 73.6426 427.627 75.2718 423.259 78.5303L417.941 65.4785C421.665 63.6882 425.336 62.3633 428.952 61.5039C432.569 60.6445 436.006 60.2148 439.265 60.2148C444.457 60.2148 448.951 61.1995 452.746 63.1689C456.577 65.1025 459.549 67.8597 461.662 71.4404C463.775 74.9854 464.831 79.1569 464.831 83.9551V115H451.833L450.812 109.253C448.807 111.366 446.354 113.031 443.454 114.248C440.59 115.465 437.438 116.074 434.001 116.074C428.558 116.074 424.1 114.606 420.627 111.67C417.189 108.734 415.471 104.92 415.471 100.229ZM430.939 96.6846C430.939 98.4749 431.62 99.9251 432.98 101.035C434.377 102.109 436.203 102.646 438.459 102.646C441.538 102.646 444.117 101.715 446.193 99.8535C448.306 97.9915 449.362 95.6999 449.362 92.9785V91.9043C448.037 91.4746 446.605 91.1344 445.065 90.8838C443.562 90.6331 442.076 90.5078 440.607 90.5078C437.564 90.5078 435.183 91.0449 433.464 92.1191C431.781 93.1934 430.939 94.7152 430.939 96.6846ZM489.108 61.2891L501.677 87.5537C502.25 88.6995 502.787 90.0065 503.288 91.4746C503.789 92.9427 504.219 94.554 504.577 96.3086L519.079 61.2891H535.407L501.999 141.855H485.725L497.971 112.314L472.941 61.2891H489.108Z" fill="white"/>
<defs>
<linearGradient id="paint0_linear" x1="62.3729" y1="14.3729" x2="17.6271" y2="114.441" gradientUnits="userSpaceOnUse">
<stop stop-color="white"/>
<stop offset="1" stop-color="white" stop-opacity="0"/>
</linearGradient>
<linearGradient id="paint1_linear" x1="148.881" y1="102.78" x2="79.7288" y2="7.86441" gradientUnits="userSpaceOnUse">
<stop stop-color="white"/>
<stop offset="1" stop-color="white" stop-opacity="0"/>
</linearGradient>
<linearGradient id="paint2_linear" x1="25.4915" y1="136.949" x2="146.712" y2="114.441" gradientUnits="userSpaceOnUse">
<stop stop-color="white"/>
<stop offset="1" stop-color="white" stop-opacity="0"/>
</linearGradient>
</defs>
</svg>
